# xmcd
#
# Track frame offsets:
#	150
#	22984
#	37939
#	54846
#	67693
#	86563
#	104996
#	119550
#	132544
#	148731
#	166800
#	183841
#	198590
#	212143
#	229834
#	242273
#	258661
#	276718
#	301885
#
# Disc length: 4031 seconds
#
# Revision: 1
# Processed by: cddbd v1.5.2PL0 Copyright (c) Steve Scherf et al.
# Submitted via: audiograbber 1.83.01
#
DISCID=140fbd13
DTITLE=Various Artist - TTFP-43&44
DYEAR=1900
DGENRE=
TTITLE0=MONTGOMERY GENTRY - A COLD ONE COMIN' ON
TTITLE1=BLAKE SHELTON - ALL OVER ME
TTITLE2=MARK WILLS - ALMOST DOESN'T COUNT
TTITLE3=GEORGE STRAIT - AMARILLO BY MORNING
TTITLE4=TIM MCGRAW - COWBOY IN ME
TTITLE5=ALAN JACKSON - DRIVE (FOR DADDY GENE)
TTITLE6=LONESTAR - EVERY LITTLE THING SHE DOES
TTITLE7=BROOKS and DUNN - GOOD GIRLS GO TO HEAVEN
TTITLE8=STEVE HOLY - GOOD MORNING BEAUTIFUL
TTITLE9=CHRIS CAGLE - I BREATHE IN I BREATHER OUT
TTITLE10=GEORGE STRAIT - IF IT'S GONNA RAIN
TTITLE11=BRAD PAISLEY - I'M GONNA MISS HER
TTITLE12=TOBY KEITH - I'M JUST TALKING ABOUT TONIGHT
TTITLE13=RASCAL FLATTS - I'M MOVING ON
TTITLE14=ALAN JACKSON - IT'S ALRIGHT TO BE A REDNECK
TTITLE15=GEORGE STRAIT - LIVING AND LIVING WELL
TTITLE16=SOGGY BOTTOM BOYS - MAN OF CONSTANT SORROW
TTITLE17=BROOKS and DUNN - MY HEART IS LOST TO YOU
TTITLE18=DATA TRACK - Data Track
EXTD=
EXTT0=
EXTT1=
EXTT2=
EXTT3=
EXTT4=
EXTT5=
EXTT6=
EXTT7=
EXTT8=
EXTT9=
EXTT10=
EXTT11=
EXTT12=
EXTT13=
EXTT14=
EXTT15=
EXTT16=
EXTT17=
EXTT18=
PLAYORDER=
